<?xml version="1.0" encoding="utf-8"?>
<!-- Generator: Adobe Illustrator 27.3.1, SVG Export Plug-In . SVG Version: 6.00 Build 0)  -->
<svg version="1.1" id="Capa_1" xmlns="http://www.w3.org/2000/svg" xmlns:xlink="http://www.w3.org/1999/xlink" x="0px" y="0px"
	 viewBox="0 0 42.3 36.7" style="enable-background:new 0 0 42.3 36.7;" xml:space="preserve">
<style type="text/css">
	.st0{fill:#1D1D1B;}
</style>
<g>
	<path class="st0" d="M15.3,11.7c2.2,0,4-1.8,4-4c0-2.1-1.8-4-4-4s-4,1.8-4,4C11.4,10,13.1,11.7,15.3,11.7z"/>
	<path class="st0" d="M27.2,11.7c2.2,0,4-1.8,4-4c0-2.1-1.8-4-4-4s-4,1.8-4,4C23.2,10,25,11.7,27.2,11.7z"/>
	<polygon class="st0" points="31.8,20.1 27.1,15.4 21.1,21.3 15.2,15.4 10.5,20.1 16.4,26 10.5,32 15.2,36.7 21.1,30.8 27.1,36.7 
		31.8,32 25.9,26 	"/>
</g>
</svg>
